<svg width="341" height="114" viewBox="0 0 341 114" fill="none" xmlns="http://www.w3.org/2000/svg">
<path d="M67.7611 85.2363C52.5941 85.2363 42.4336 76.2538 42.4336 62.7065V30.0165H57.6006V62.044C57.6006 68.4495 61.6501 72.7198 67.8346 72.7198C73.7983 72.7198 77.8478 68.4495 77.8478 62.044V30.0165H93.0148V62.7065C93.0148 76.2538 82.9281 85.2363 67.7611 85.2363ZM168.798 84.5H153.631L151.937 55.2703L139.2 84.5H131.248L118.585 55.4175L116.818 84.5H101.65L105.7 30.0165H122.708L135.224 59.3198L147.741 30.0165H164.748L168.798 84.5ZM202.719 29.2803C217.886 29.2803 227.973 38.2628 227.973 51.81V84.5H212.806V71.1738H192.558V84.5H177.391V51.81C177.391 38.2628 187.552 29.2803 202.719 29.2803ZM192.558 58.6573H212.806V52.399C212.806 46.067 208.756 41.7968 202.792 41.7968C196.608 41.7968 192.558 46.067 192.558 52.399V58.6573ZM253.616 71.9835H275.998V84.5H238.449V30.0165H253.616V71.9835ZM282.668 84.5V30.0165H297.836V84.5H282.668Z" fill="white"/>
</svg>
