<svg width="263" height="151" viewBox="0 0 263 151" fill="none" xmlns="http://www.w3.org/2000/svg">
<path d="M159.662 0.0163465C169.714 -0.330404 182.034 4.84084 183.239 15.3951C184.367 25.2608 185.502 30.4193 190.604 39.4263C195.112 47.3863 200.584 54.5398 207.674 60.5151C210.519 62.3908 214.397 65.6976 217.422 67.0416C234.859 74.7931 250.567 86.5681 257.717 105.003C261.252 114.121 264.594 131.178 260.229 141.023C254.857 153.141 239.602 151.831 229.699 146.568C208.164 136.291 192.464 113.678 190.479 89.9106C189.467 77.8181 191.947 70.3386 187.467 57.8578C183.127 46.0411 174.294 36.4186 162.889 31.0883C159.319 29.4413 156.259 28.4351 152.419 27.4193C149.027 26.3248 146.409 26.1786 145.379 30.2551C144.482 33.8123 149.317 34.0666 151.742 34.6168C160.057 36.5036 166.264 38.7608 171.277 46.1101C180.304 59.3443 182.099 82.2431 167.519 92.4306C160.702 96.8756 152.862 97.2006 145.409 94.0606C140.289 91.9031 137.274 89.4606 131.402 88.6781C109.323 85.7431 82.9483 96.3756 68.2365 113.008C64.9288 116.746 62.9523 119.996 60.1135 123.921C55.4818 130.393 49.8553 136.093 43.4428 140.808C21.6985 156.481 -4.10771 153.313 0.550795 120.996C3.1073 103.263 17.0815 84.1431 31.3428 73.8356C39.3608 68.0396 54.0495 61.4548 64.1298 66.4038C71.106 70.0116 74.743 72.5506 83.0085 73.9956C98.854 77.0031 125.035 72.4856 128.264 53.3548C130.427 40.5406 124.174 36.4156 112.845 34.8638C114.888 32.3961 122.801 27.4983 125.774 25.3791C130.419 21.9196 136.392 18.2741 140.554 14.3498C147.759 7.55684 148.247 1.01185 159.662 0.0163465ZM24.146 134.563C43.2818 133.183 64.62 105.391 62.9028 86.5306C62.1608 78.3831 56.9278 72.5306 48.279 73.7606C37.794 74.8131 28.5098 81.9281 21.947 89.8256C14.6303 98.6306 8.51705 110.408 9.49205 122.178C10.1543 130.173 15.909 135.511 24.146 134.563ZM243.787 138.416C270.712 129.706 239.054 74.7131 211.584 77.2481C200.719 79.5106 199.892 90.2956 201.647 99.3181C204.299 112.958 212.867 124.753 224.442 132.286C231.397 136.813 235.527 138.833 243.787 138.416ZM155.172 85.1006C180.149 82.1806 173.629 44.8636 149.897 44.2671C124.81 47.1736 130.497 83.7131 155.172 85.1006ZM169.064 23.6266C186.687 20.4613 173.969 0.883347 160.039 3.00135C157.552 3.34535 155.257 3.9166 153.324 5.58535C147.997 10.1816 151.407 17.2048 156.362 20.4796C160.464 23.1908 164.254 24.0036 169.064 23.6266Z" fill="#D9D9D9"/>
</svg>
