<svg width="266" height="113" viewBox="0 0 266 113" fill="none" xmlns="http://www.w3.org/2000/svg">
<path d="M30.3275 84.956C15.1605 84.956 5 75.9735 5 62.4263V29.7362H20.167V61.7637C20.167 68.1692 24.2165 72.4395 30.401 72.4395C36.3648 72.4395 40.4143 68.1692 40.4143 61.7637V29.7362H55.5813V62.4263C55.5813 75.9735 45.4945 84.956 30.3275 84.956ZM131.364 84.2197H116.197L114.504 54.99L101.766 84.2197H93.8148L81.151 55.1372L79.384 84.2197H64.2168L68.2663 29.7362H85.274L97.7905 59.0395L110.307 29.7362H127.315L131.364 84.2197ZM165.285 29C180.452 29 190.539 37.9825 190.539 51.5298V84.2197H175.372V70.8935H155.125V84.2197H139.958V51.5298C139.958 37.9825 150.118 29 165.285 29ZM155.125 58.377H175.372V52.1187C175.372 45.7867 171.322 41.5165 165.359 41.5165C159.174 41.5165 155.125 45.7867 155.125 52.1187V58.377ZM216.182 71.7032H238.564V84.2197H201.015V29.7362H216.182V71.7032ZM245.235 84.2197V29.7362H260.402V84.2197H245.235Z" fill="white"/>
</svg>
