<svg width="24" height="23" viewBox="0 0 24 23" fill="none" xmlns="http://www.w3.org/2000/svg">
<g clip-path="url(#clip0_782_7895)">
<path d="M12.5003 10.984L2.74683 21.0896L2.74826 21.0954C2.90553 21.6475 3.23959 22.1328 3.69918 22.4769C4.15878 22.8209 4.71855 23.0047 5.29264 23C5.77995 23 6.23708 22.8707 6.62951 22.6464L6.66114 22.6277L17.6393 16.445L12.5003 10.984Z" fill="#EA4335"/>
<path d="M22.3687 9.2632L22.3586 9.25745L17.6192 6.57507L12.2789 11.2124L17.6379 16.4421L22.3529 13.787C23.1794 13.3514 23.7401 12.5019 23.7401 11.5201C23.7401 10.5469 23.1866 9.7002 22.3687 9.2632Z" fill="#FBBC04"/>
<path d="M2.74537 1.91187C2.68787 2.12174 2.65625 2.34312 2.65625 2.57312V20.4269C2.65625 20.6569 2.68644 20.8797 2.74537 21.0881L12.8366 11.2427L2.74537 1.91187Z" fill="#4285F4"/>
<path d="M12.5721 11.5L17.6206 6.57369L6.65251 0.368001C6.23997 0.126688 5.77058 -0.000336894 5.29264 6.71052e-07C4.07364 6.71052e-07 3.04439 0.809313 2.74683 1.90756V1.91044L12.5721 11.5Z" fill="#34A853"/>
</g>
<defs>
<clipPath id="clip0_782_7895">
<rect width="24" height="23" fill="white"/>
</clipPath>
</defs>
</svg>
